<?xml version="1.0" encoding="utf-8"?>
<!-- Generator: Adobe Illustrator 16.0.3, SVG Export Plug-In . SVG Version: 6.00 Build 0)  -->
<!DOCTYPE svg PUBLIC "-//W3C//DTD SVG 1.1//EN" "http://www.w3.org/Graphics/SVG/1.1/DTD/svg11.dtd">
<svg version="1.1" id="Layer_1" xmlns="http://www.w3.org/2000/svg" xmlns:xlink="http://www.w3.org/1999/xlink" x="0px" y="0px"
	 width="477.553px" height="171.176px" viewBox="0 0 477.553 171.176" enable-background="new 0 0 477.553 171.176"
	 xml:space="preserve">
<g>
	<path fill="#FFFFFF" d="M286.183,89.088c0,0.588,0.067,1.187,0.203,1.791c0.135,0.604,0.396,1.154,0.784,1.648
		c0.39,0.497,0.92,0.9,1.597,1.211c0.676,0.311,1.553,0.465,2.635,0.465h2.027v-3.488h-0.773c-0.789,0-1.398-0.17-1.827-0.51
		c-0.429-0.342-0.642-1.102-0.642-2.279V74.071h3.293v-2.836h-3.293v-5.626h-3.902v5.626h-2.736v2.836h2.636L286.183,89.088
		L286.183,89.088z"/>
	<path fill="#FFFFFF" d="M295.991,86.879c0.033,0.668,0.084,1.279,0.15,1.836c0.066,0.56,0.151,1.023,0.254,1.396
		c0.135,0.528,0.36,1.056,0.682,1.582c0.318,0.528,0.748,1,1.287,1.419c0.538,0.417,1.195,0.76,1.969,1.021
		c0.775,0.264,1.699,0.396,2.777,0.396c2.423,0,4.232-0.525,5.428-1.582c1.194-1.053,1.859-2.57,1.994-4.556l-4.053-0.699
		c-0.068,1.087-0.35,1.933-0.844,2.535c-0.494,0.604-1.234,0.905-2.222,0.905c-1.637,0-2.69-0.696-3.168-2.092
		c-0.17-0.525-0.278-1.285-0.33-2.277c-0.05-0.991-0.075-1.999-0.075-3.022h10.741V78.07c0-2.231-0.556-3.983-1.667-5.254
		c-1.109-1.271-2.91-1.907-5.4-1.907c-1.887,0-3.375,0.356-4.469,1.069c-1.096,0.713-1.878,1.673-2.349,2.883
		c-0.168,0.403-0.303,0.907-0.404,1.511c-0.101,0.604-0.186,1.263-0.252,1.975c-0.067,0.713-0.108,1.466-0.127,2.255
		c-0.018,0.791-0.024,1.574-0.024,2.348c0,0.59,0.008,1.225,0.024,1.906C295.933,85.54,295.958,86.215,295.991,86.879z
		 M300.047,78.023c0.067-0.744,0.186-1.332,0.356-1.767c0.305-0.712,0.715-1.201,1.226-1.464c0.51-0.263,1.071-0.396,1.686-0.396
		c0.68,0,1.233,0.116,1.658,0.349c0.426,0.233,0.758,0.55,0.996,0.954c0.237,0.404,0.397,0.876,0.483,1.418
		c0.085,0.543,0.128,1.108,0.128,1.697v1.952h-6.687C299.926,79.682,299.978,78.768,300.047,78.023z"/>
	<path fill="#FFFFFF" d="M313.594,86.879c0.016,0.668,0.058,1.279,0.127,1.836c0.065,0.56,0.149,1.023,0.252,1.396
		c0.169,0.56,0.414,1.108,0.733,1.651c0.321,0.543,0.753,1.017,1.293,1.419c0.539,0.401,1.189,0.729,1.95,0.976
		c0.762,0.247,1.663,0.373,2.711,0.373c2.499,0,4.331-0.566,5.497-1.697c1.165-1.131,1.781-2.75,1.851-4.858l-4.104-0.651
		c0,1.18-0.227,2.108-0.68,2.789c-0.452,0.684-1.197,1.023-2.235,1.023c-0.87,0-1.549-0.191-2.035-0.576
		c-0.485-0.387-0.846-0.918-1.079-1.596c-0.17-0.523-0.271-1.271-0.305-2.242c-0.033-0.971-0.051-1.966-0.051-2.983
		c0.033-1.851,0.084-3.453,0.15-4.808c0.065-1.357,0.2-2.267,0.401-2.729c0.302-0.709,0.695-1.203,1.182-1.479
		c0.484-0.278,1.064-0.416,1.733-0.416c0.905,0,1.618,0.31,2.139,0.93c0.52,0.62,0.778,1.626,0.778,3.023l4.154-0.513
		c0-2.076-0.533-3.734-1.596-4.974c-1.065-1.24-2.848-1.86-5.347-1.86c-1.893,0-3.379,0.342-4.459,1.023
		c-1.081,0.681-1.857,1.611-2.33,2.789c-0.17,0.373-0.305,0.86-0.405,1.464c-0.103,0.605-0.179,1.28-0.229,2.023
		s-0.093,1.527-0.126,2.348c-0.035,0.821-0.051,1.619-0.051,2.394c0,0.59,0.008,1.225,0.023,1.906
		C313.558,85.54,313.574,86.215,313.594,86.879z"/>
	<path fill="#FFFFFF" d="M334.76,78.117c0-1.084,0.303-1.921,0.904-2.511c0.604-0.588,1.441-0.883,2.516-0.883
		c1.104,0,1.942,0.288,2.514,0.86c0.57,0.573,0.855,1.356,0.855,2.348v16.272h4.003v-17.25c0-1.766-0.464-3.2-1.391-4.3
		c-0.926-1.1-2.313-1.65-4.165-1.65c-2.222,0-3.921,0.837-5.099,2.511h-0.088V60.448h-4.053v33.755h4.002L334.76,78.117
		L334.76,78.117z"/>
	<path fill="#FFFFFF" d="M353.074,78.302c0-1.084,0.334-1.953,1.005-2.604c0.672-0.65,1.543-0.977,2.615-0.977
		c1.105,0,1.911,0.288,2.414,0.86c0.502,0.573,0.755,1.356,0.755,2.348v16.272h4.002v-17.25c0-1.766-0.462-3.2-1.388-4.3
		s-2.316-1.65-4.166-1.65c-2.223,0-3.922,0.837-5.1,2.511h-0.089v-2.279h-4.053v22.97h4.003L353.074,78.302L353.074,78.302z"/>
	<path fill="#FFFFFF" d="M367.234,86.879c0.018,0.668,0.059,1.279,0.126,1.836c0.068,0.56,0.154,1.023,0.256,1.396
		c0.169,0.56,0.424,1.108,0.763,1.651s0.778,1.017,1.321,1.419c0.541,0.401,1.193,0.729,1.957,0.976
		c0.763,0.247,1.668,0.373,2.721,0.373c0.813,0,1.644-0.078,2.489-0.232c0.849-0.154,1.637-0.449,2.364-0.883
		c0.729-0.435,1.348-1.039,1.855-1.813s0.848-1.782,1.018-3.022c0.202-1.766,0.305-3.533,0.305-5.301
		c0-0.805-0.019-1.72-0.053-2.742c-0.033-1.023-0.084-1.984-0.15-2.883c-0.067-0.96-0.221-1.853-0.457-2.673
		c-0.237-0.821-0.628-1.535-1.17-2.139c-0.543-0.605-1.263-1.077-2.16-1.419c-0.897-0.34-2.061-0.511-3.482-0.511
		c-1.897,0-3.406,0.342-4.524,1.023c-1.116,0.681-1.914,1.611-2.389,2.789c-0.17,0.373-0.306,0.86-0.406,1.464
		c-0.102,0.605-0.188,1.28-0.256,2.023c-0.067,0.743-0.119,1.527-0.151,2.348c-0.033,0.821-0.051,1.619-0.051,2.394
		c0,0.59,0.007,1.225,0.026,1.906C367.2,85.54,367.219,86.215,367.234,86.879z M371.312,78.918c0.066-1.376,0.201-2.28,0.402-2.714
		c0.302-0.709,0.729-1.204,1.282-1.483c0.554-0.277,1.165-0.417,1.838-0.417c1.644,0,2.698,0.726,3.169,2.18
		c0.1,0.278,0.176,0.649,0.227,1.111c0.051,0.464,0.084,0.991,0.1,1.577c0.019,0.587,0.033,1.198,0.052,1.832
		c0.018,0.633,0.024,1.275,0.024,1.924c0,0.648-0.008,1.298-0.024,1.947c-0.018,0.649-0.052,1.26-0.101,1.833
		c-0.051,0.57-0.108,1.066-0.176,1.482c-0.068,0.418-0.135,0.703-0.201,0.857c-0.27,0.619-0.672,1.121-1.209,1.508
		c-0.536,0.385-1.156,0.578-1.858,0.578c-1.744,0-2.853-0.709-3.32-2.133c-0.169-0.525-0.271-1.273-0.303-2.248
		c-0.035-0.974-0.052-1.971-0.052-2.992C371.193,81.909,371.245,80.294,371.312,78.918z"/>
	<path fill="#FFFFFF" d="M387.292,93.39c0.508,0.418,1.148,0.713,1.927,0.883c0.774,0.171,1.705,0.257,2.787,0.257h0.811v-3.396
		h-0.608c-1.013,0-1.663-0.239-1.949-0.719c-0.287-0.479-0.433-1.244-0.433-2.297V60.448h-4.053V88.81
		c0,1.147,0.127,2.092,0.381,2.836C386.405,92.39,386.786,92.972,387.292,93.39z"/>
	<path fill="#FFFFFF" d="M395.246,86.879c0.018,0.668,0.061,1.279,0.126,1.836c0.068,0.56,0.154,1.023,0.257,1.396
		c0.169,0.56,0.424,1.108,0.763,1.651s0.778,1.017,1.321,1.419c0.541,0.401,1.193,0.729,1.957,0.976
		c0.763,0.247,1.67,0.373,2.72,0.373c0.813,0,1.644-0.078,2.491-0.232c0.847-0.154,1.635-0.449,2.362-0.883
		c0.729-0.435,1.349-1.039,1.855-1.813c0.51-0.774,0.849-1.782,1.018-3.022c0.203-1.766,0.306-3.533,0.306-5.301
		c0-0.805-0.019-1.72-0.052-2.742c-0.034-1.023-0.085-1.984-0.151-2.883c-0.068-0.96-0.222-1.853-0.457-2.673
		c-0.238-0.821-0.628-1.535-1.17-2.139c-0.543-0.605-1.264-1.077-2.16-1.419c-0.898-0.34-2.06-0.511-3.482-0.511
		c-1.897,0-3.405,0.342-4.523,1.023s-1.915,1.611-2.391,2.789c-0.168,0.373-0.305,0.86-0.405,1.464
		c-0.103,0.605-0.188,1.28-0.257,2.023c-0.065,0.744-0.116,1.527-0.149,2.348c-0.035,0.821-0.052,1.619-0.052,2.394
		c0,0.59,0.009,1.225,0.025,1.906C395.214,85.54,395.229,86.215,395.246,86.879z M399.324,78.918c0.066-1.376,0.2-2.28,0.402-2.714
		c0.302-0.709,0.729-1.204,1.282-1.483c0.553-0.277,1.166-0.417,1.838-0.417c1.643,0,2.699,0.726,3.17,2.18
		c0.1,0.278,0.174,0.649,0.225,1.111c0.052,0.464,0.084,0.991,0.103,1.577c0.016,0.587,0.033,1.198,0.05,1.832
		c0.017,0.633,0.024,1.275,0.024,1.924c0,0.648-0.009,1.298-0.024,1.947s-0.05,1.26-0.101,1.833
		c-0.052,0.57-0.109,1.066-0.177,1.482c-0.065,0.418-0.135,0.703-0.201,0.857c-0.27,0.619-0.671,1.121-1.206,1.508
		c-0.538,0.385-1.158,0.578-1.861,0.578c-1.744,0-2.853-0.709-3.318-2.133c-0.17-0.525-0.271-1.273-0.305-2.248
		c-0.035-0.974-0.051-1.971-0.051-2.992C399.206,81.909,399.258,80.294,399.324,78.918z"/>
	<path fill="#FFFFFF" d="M414.2,91.438c0.404,0.914,1.014,1.645,1.823,2.186c0.813,0.543,1.907,0.813,3.294,0.813
		c0.775,0,1.654-0.194,2.634-0.581c0.979-0.389,1.725-1.001,2.229-1.837h0.102v4.321c0,0.468-0.06,0.914-0.179,1.351
		c-0.118,0.435-0.306,0.828-0.56,1.187c-0.257,0.355-0.595,0.643-1.021,0.859c-0.424,0.217-0.924,0.325-1.5,0.325
		c-1.188,0-2.012-0.278-2.47-0.836c-0.458-0.56-0.704-1.304-0.737-2.231l-4.022,0.696c0.067,1.828,0.694,3.246,1.881,4.254
		c1.186,1.009,2.897,1.513,5.136,1.513c1.559,0,2.821-0.219,3.786-0.651c0.967-0.435,1.721-1.007,2.264-1.72
		c0.542-0.713,0.915-1.521,1.119-2.418c0.203-0.898,0.305-1.813,0.305-2.744V71.235h-4.002v1.767l-0.102,0.046
		c-0.541-0.681-1.114-1.2-1.723-1.558c-0.607-0.355-1.57-0.534-2.89-0.534c-0.473,0-1.021,0.054-1.646,0.162
		c-0.626,0.109-1.241,0.358-1.852,0.745c-0.606,0.388-1.156,0.953-1.645,1.697c-0.49,0.744-0.805,1.751-0.938,3.022
		c-0.17,1.488-0.254,2.859-0.254,4.114c0,1.256,0,2.55,0,3.884c0,1.301,0.06,2.542,0.178,3.719
		C413.532,89.477,413.795,90.523,414.2,91.438z M417.342,78.884c0.067-1.007,0.229-1.837,0.485-2.488
		c0.254-0.65,0.619-1.123,1.098-1.417c0.477-0.294,1.14-0.443,1.988-0.443c1.123,0,1.975,0.342,2.554,1.023
		c0.575,0.683,0.866,1.55,0.866,2.604v9.394c0,0.898-0.331,1.672-0.995,2.324c-0.662,0.65-1.472,0.975-2.425,0.975
		c-0.918,0-1.624-0.154-2.116-0.464c-0.494-0.31-0.853-0.806-1.072-1.487c-0.221-0.683-0.357-1.541-0.408-2.582
		c-0.051-1.038-0.076-2.301-0.076-3.789C417.239,81.108,417.274,79.891,417.342,78.884z"/>
	<path fill="#FFFFFF" d="M441.159,79.93l-1.875,8.043h-0.151l-2.026-7.951l-2.128-8.787h-4.256l6.637,23.155l-0.404,1.627
		c-0.373,1.549-0.77,2.61-1.19,3.187c-0.423,0.572-1.105,0.858-2.053,0.858h-1.014v3.162h1.521c1.789,0,3.123-0.474,4.002-1.419
		c0.879-0.944,1.521-2.192,1.926-3.741l7.194-26.829h-4.104L441.159,79.93z"/>
	<path fill="#FFFFFF" d="M303.206,108.7c0.98,0,1.739,0.288,2.281,0.859c0.539,0.574,0.812,1.357,0.812,2.35v16.272h4.002v-17.25
		c0-1.767-0.465-3.201-1.395-4.302c-0.929-1.1-2.321-1.649-4.18-1.649c-1.216,0-2.264,0.231-3.142,0.696
		c-0.88,0.466-1.705,1.087-2.482,1.859c-0.439-0.805-1.057-1.434-1.851-1.883s-1.78-0.674-2.963-0.674
		c-1.082,0-1.983,0.217-2.711,0.65c-0.727,0.436-1.377,1.055-1.951,1.858h-0.102v-2.276h-4.053v22.969h4.002v-15.9
		c0-1.085,0.311-1.951,0.93-2.604c0.619-0.65,1.416-0.977,2.389-0.977c0.972,0,1.726,0.288,2.263,0.859
		c0.534,0.574,0.805,1.357,0.805,2.35v16.272h4.002v-16.228c0-0.992,0.33-1.783,0.988-2.371
		C301.51,108.995,302.295,108.7,303.206,108.7z"/>
	<path fill="#FFFFFF" d="M314.616,126.344c0.422,0.637,0.988,1.146,1.697,1.533c0.709,0.389,1.588,0.582,2.634,0.582
		c1.081,0,2.052-0.17,2.913-0.512c0.861-0.34,1.629-0.93,2.307-1.768h0.051v2h4.003v-16.926c0-2.354-0.617-4.006-1.853-4.949
		c-1.233-0.947-2.979-1.42-5.242-1.42c-1.924,0-3.513,0.436-4.762,1.303c-1.25,0.867-2.061,2.063-2.432,3.58l3.8,0.977
		c0.169-0.838,0.573-1.44,1.215-1.813c0.643-0.371,1.301-0.558,1.978-0.558c1.282,0,2.152,0.265,2.607,0.791
		c0.457,0.527,0.686,1.239,0.686,2.137v3.07h-3.952c-1.385,0-2.517,0.226-3.396,0.674c-0.878,0.449-1.569,1.031-2.075,1.744
		c-0.508,0.713-0.861,1.502-1.064,2.371c-0.203,0.867-0.305,1.736-0.305,2.604c0,0.836,0.094,1.65,0.278,2.439
		C313.89,124.999,314.192,125.709,314.616,126.344z M318.517,118.441c0.795-0.573,1.715-0.86,2.762-0.86h2.938v3.627
		c0,1.147-0.313,2.047-0.938,2.696c-0.626,0.65-1.563,0.976-2.813,0.976c-1.082,0-1.875-0.285-2.381-0.858
		c-0.508-0.573-0.761-1.401-0.761-2.487C317.327,120.043,317.724,119.013,318.517,118.441z"/>
	<path fill="#FFFFFF" d="M341.052,104.98c-2.224,0-3.922,0.836-5.101,2.511h-0.088v-2.277h-4.053v22.969h4.003V112.28
		c0-1.085,0.334-1.951,1.005-2.604c0.67-0.65,1.542-0.977,2.615-0.977c1.104,0,1.91,0.288,2.414,0.859
		c0.502,0.574,0.754,1.357,0.754,2.35v16.272h4.002v-17.25c0-1.767-0.462-3.201-1.388-4.302
		C344.29,105.53,342.901,104.98,341.052,104.98z"/>
	<path fill="#FFFFFF" d="M362.461,106.306c-1.233-0.947-2.98-1.419-5.24-1.419c-1.926,0-3.515,0.436-4.765,1.302
		c-1.248,0.867-2.059,2.062-2.432,3.58l3.801,0.978c0.168-0.838,0.574-1.441,1.216-1.814c0.643-0.371,1.301-0.557,1.977-0.557
		c1.283,0,2.154,0.264,2.609,0.789c0.455,0.528,0.684,1.24,0.684,2.139v3.068h-3.951c-1.386,0-2.518,0.227-3.395,0.674
		c-0.879,0.451-1.57,1.033-2.077,1.744c-0.507,0.715-0.862,1.504-1.064,2.371c-0.202,0.868-0.304,1.737-0.304,2.604
		c0,0.836,0.092,1.649,0.279,2.44c0.184,0.791,0.487,1.504,0.911,2.14c0.423,0.636,0.988,1.146,1.696,1.532
		c0.71,0.389,1.587,0.582,2.636,0.582c1.08,0,2.052-0.17,2.912-0.512c0.861-0.34,1.63-0.93,2.307-1.768h0.05v2h4.002v-16.926
		C364.312,108.902,363.694,107.25,362.461,106.306z M360.31,121.208c0,1.147-0.313,2.047-0.938,2.696
		c-0.626,0.65-1.563,0.976-2.813,0.976c-1.081,0-1.874-0.285-2.38-0.858c-0.508-0.573-0.762-1.401-0.762-2.487
		c0-1.488,0.396-2.52,1.19-3.092c0.793-0.574,1.715-0.861,2.761-0.861h2.938v3.627H360.31z"/>
	<path fill="#FFFFFF" d="M378.519,131.667c-0.119,0.435-0.307,0.83-0.562,1.187c-0.256,0.356-0.594,0.644-1.019,0.86
		s-0.926,0.326-1.503,0.326c-1.188,0-2.011-0.279-2.469-0.838c-0.457-0.558-0.704-1.302-0.737-2.232l-4.022,0.697
		c0.067,1.828,0.694,3.248,1.882,4.256c1.187,1.007,2.897,1.511,5.137,1.511c1.559,0,2.82-0.216,3.786-0.649
		c0.966-0.435,1.72-1.009,2.263-1.721c0.543-0.714,0.916-1.521,1.118-2.418c0.204-0.898,0.306-1.813,0.306-2.744v-24.688h-4.002
		v1.768l-0.102,0.045c-0.541-0.682-1.115-1.199-1.724-1.557c-0.606-0.356-1.569-0.535-2.889-0.535c-0.473,0-1.021,0.055-1.646,0.162
		c-0.625,0.109-1.24,0.357-1.85,0.744c-0.607,0.389-1.157,0.953-1.646,1.697c-0.49,0.744-0.802,1.752-0.938,3.021
		c-0.169,1.486-0.253,2.859-0.253,4.115c0,1.255,0,2.551,0,3.882c0,1.303,0.06,2.542,0.177,3.72c0.118,1.18,0.381,2.225,0.786,3.139
		c0.404,0.914,1.015,1.645,1.824,2.186c0.812,0.543,1.907,0.814,3.293,0.814c0.775,0,1.654-0.193,2.635-0.582
		c0.979-0.388,1.723-1,2.229-1.836h0.102v4.323C378.696,130.786,378.637,131.234,378.519,131.667z M377.752,123.857
		c-0.663,0.649-1.472,0.978-2.425,0.978c-0.918,0-1.623-0.154-2.116-0.465c-0.494-0.31-0.853-0.807-1.072-1.488
		c-0.222-0.682-0.357-1.543-0.408-2.58s-0.076-2.301-0.076-3.789c0-1.426,0.033-2.643,0.104-3.65
		c0.066-1.007,0.229-1.838,0.483-2.488c0.255-0.649,0.62-1.121,1.098-1.418c0.477-0.293,1.141-0.44,1.989-0.44
		c1.123,0,1.974,0.342,2.552,1.024c0.578,0.68,0.868,1.549,0.868,2.603v9.394C378.747,122.431,378.415,123.208,377.752,123.857z"/>
	<path fill="#FFFFFF" d="M400.679,122.37l-4.054-0.697c-0.067,1.084-0.35,1.93-0.844,2.533c-0.494,0.604-1.233,0.907-2.221,0.907
		c-1.635,0-2.69-0.696-3.167-2.094c-0.169-0.526-0.278-1.285-0.329-2.276c-0.052-0.992-0.076-1.998-0.076-3.021h10.74v-5.674
		c0-2.23-0.556-3.982-1.666-5.254c-1.11-1.271-2.912-1.905-5.402-1.905c-1.885,0-3.375,0.354-4.469,1.069
		c-1.094,0.713-1.877,1.674-2.348,2.883c-0.168,0.402-0.304,0.906-0.404,1.51c-0.102,0.605-0.186,1.264-0.252,1.977
		c-0.067,0.715-0.109,1.465-0.127,2.256c-0.016,0.791-0.025,1.574-0.025,2.349c0,0.59,0.011,1.226,0.025,1.905
		c0.018,0.683,0.043,1.355,0.076,2.023c0.033,0.666,0.084,1.278,0.149,1.836c0.068,0.559,0.152,1.021,0.254,1.395
		c0.136,0.527,0.361,1.056,0.683,1.582c0.32,0.527,0.75,0.998,1.287,1.418c0.538,0.418,1.194,0.761,1.969,1.021
		c0.775,0.264,1.701,0.396,2.777,0.396c2.424,0,4.231-0.526,5.428-1.582C399.881,125.874,400.546,124.353,400.679,122.37z
		 M390.192,112c0.068-0.744,0.188-1.332,0.357-1.768c0.307-0.713,0.715-1.201,1.225-1.465c0.511-0.262,1.072-0.395,1.687-0.395
		c0.682,0,1.232,0.115,1.659,0.35c0.426,0.23,0.757,0.549,0.994,0.951c0.238,0.402,0.4,0.877,0.486,1.418
		c0.084,0.543,0.127,1.109,0.127,1.697v1.953h-6.688C390.073,113.661,390.124,112.747,390.192,112z"/>
	<path fill="#FFFFFF" d="M423.534,104.98c-1.217,0-2.264,0.231-3.141,0.696c-0.88,0.466-1.707,1.087-2.484,1.859
		c-0.438-0.805-1.057-1.434-1.849-1.883c-0.794-0.449-1.782-0.674-2.964-0.674c-1.082,0-1.984,0.217-2.711,0.65
		c-0.728,0.436-1.377,1.055-1.95,1.858h-0.104v-2.276h-4.052v22.969h4.002v-15.9c0-1.085,0.311-1.951,0.931-2.604
		c0.619-0.65,1.415-0.977,2.388-0.977s1.726,0.288,2.262,0.859c0.536,0.574,0.805,1.357,0.805,2.35v16.272h4.003v-16.228
		c0-0.992,0.329-1.783,0.987-2.371c0.66-0.59,1.444-0.885,2.355-0.885c0.979,0,1.74,0.289,2.281,0.86
		c0.539,0.573,0.811,1.356,0.811,2.349v16.273h4.002v-17.25c0-1.768-0.465-3.201-1.393-4.301
		C426.784,105.532,425.392,104.98,423.534,104.98z"/>
	<path fill="#FFFFFF" d="M440.191,104.887c-1.886,0-3.375,0.355-4.47,1.068c-1.094,0.713-1.876,1.674-2.348,2.883
		c-0.169,0.404-0.303,0.906-0.404,1.511c-0.101,0.604-0.185,1.265-0.252,1.978c-0.066,0.713-0.109,1.465-0.125,2.256
		c-0.019,0.789-0.025,1.572-0.025,2.348c0,0.59,0.008,1.225,0.025,1.906c0.016,0.682,0.042,1.354,0.075,2.022
		c0.032,0.666,0.083,1.278,0.15,1.836c0.066,0.56,0.15,1.021,0.253,1.396c0.134,0.527,0.362,1.055,0.682,1.582
		c0.319,0.525,0.75,0.998,1.287,1.416c0.538,0.42,1.194,0.762,1.971,1.022c0.773,0.263,1.699,0.396,2.774,0.396
		c2.425,0,4.232-0.525,5.431-1.58c1.192-1.053,1.857-2.572,1.994-4.557l-4.055-0.697c-0.068,1.084-0.349,1.93-0.843,2.533
		c-0.494,0.604-1.234,0.907-2.223,0.907c-1.636,0-2.689-0.696-3.167-2.094c-0.169-0.526-0.278-1.285-0.329-2.276
		c-0.051-0.992-0.076-1.998-0.076-3.021h10.741v-5.674c0-2.23-0.557-3.982-1.667-5.254
		C444.482,105.523,442.681,104.887,440.191,104.887z M443.258,114.745h-6.688c0.033-1.084,0.086-1.998,0.152-2.742
		c0.067-0.746,0.188-1.334,0.357-1.769c0.307-0.713,0.715-1.2,1.225-1.465c0.512-0.263,1.074-0.396,1.688-0.396
		c0.681,0,1.232,0.115,1.658,0.351c0.425,0.229,0.757,0.549,0.994,0.95c0.24,0.404,0.4,0.877,0.486,1.418
		c0.084,0.543,0.127,1.109,0.127,1.697L443.258,114.745L443.258,114.745z"/>
	<path fill="#FFFFFF" d="M459.743,104.98c-2.223,0-3.923,0.836-5.101,2.511h-0.087v-2.277h-4.055v22.969h4.004V112.28
		c0-1.085,0.334-1.951,1.006-2.604c0.67-0.65,1.541-0.977,2.615-0.977c1.104,0,1.909,0.288,2.411,0.859
		c0.504,0.574,0.757,1.357,0.757,2.35v16.272h4.002v-17.25c0-1.767-0.464-3.201-1.39-4.302
		C462.98,105.53,461.594,104.98,459.743,104.98z"/>
	<path fill="#FFFFFF" d="M477.552,108.047v-2.836h-3.293v-5.627h-3.902v5.627h-2.734v2.836h2.636v15.019
		c0,0.591,0.065,1.188,0.202,1.791c0.134,0.604,0.396,1.155,0.783,1.649c0.389,0.496,0.921,0.9,1.597,1.209
		c0.676,0.311,1.555,0.466,2.635,0.466h2.027v-3.487h-0.771c-0.79,0-1.398-0.171-1.828-0.511c-0.43-0.343-0.643-1.101-0.643-2.278
		v-13.855h3.292V108.047z"/>
	<path fill="#FFFFFF" d="M289.399,143.187c0.221-0.276,0.533-0.503,0.938-0.674c0.406-0.171,0.912-0.255,1.521-0.255
		c0.877,0,1.586,0.271,2.127,0.813c0.541,0.543,0.777,1.42,0.709,2.627l4.154-0.512c0-1.953-0.531-3.494-1.597-4.626
		c-1.063-1.131-2.846-1.696-5.345-1.696c-2.331,0-4.078,0.58-5.243,1.744c-1.166,1.161-1.748,2.658-1.748,4.486
		c0,0.681,0.084,1.332,0.252,1.951c0.17,0.621,0.482,1.211,0.938,1.768c0.456,0.559,1.098,1.086,1.926,1.581
		c0.828,0.497,1.883,0.96,3.167,1.396c0.776,0.279,1.401,0.543,1.874,0.789c0.473,0.248,0.844,0.521,1.115,0.814
		c0.27,0.295,0.456,0.636,0.557,1.023c0.103,0.387,0.152,0.844,0.152,1.371c0,1.146-0.236,1.983-0.709,2.51
		c-0.475,0.527-1.334,0.791-2.584,0.791c-0.98,0-1.724-0.311-2.229-0.93c-0.508-0.621-0.744-1.457-0.711-2.513l-4.104,0.606
		c0.067,2.014,0.682,3.556,1.844,4.625c1.16,1.068,2.951,1.604,5.375,1.604s4.182-0.612,5.276-1.838
		c1.093-1.224,1.64-2.856,1.64-4.903c0-0.807-0.059-1.541-0.176-2.209c-0.117-0.666-0.379-1.285-0.781-1.859
		c-0.404-0.573-0.983-1.1-1.738-1.582c-0.757-0.479-1.757-0.92-3-1.324c-0.906-0.277-1.629-0.557-2.167-0.836
		s-0.958-0.564-1.26-0.861c-0.303-0.293-0.505-0.604-0.604-0.93c-0.103-0.324-0.151-0.674-0.151-1.045
		c0-0.311,0.043-0.635,0.127-0.977C289.028,143.775,289.181,143.467,289.399,143.187z"/>
	<path fill="#FFFFFF" d="M310.827,147.883l-1.876,8.045h-0.15l-2.027-7.951l-2.128-8.788h-4.256l6.638,23.156l-0.405,1.627
		c-0.372,1.549-0.769,2.608-1.189,3.185c-0.424,0.573-1.106,0.859-2.053,0.859h-1.015v3.16h1.521c1.789,0,3.123-0.473,4.002-1.418
		c0.878-0.944,1.52-2.192,1.926-3.741l7.193-26.828h-4.104L310.827,147.883z"/>
	<path fill="#FFFFFF" d="M323.224,143.187c0.219-0.276,0.531-0.503,0.938-0.674c0.404-0.171,0.911-0.255,1.521-0.255
		c0.877,0,1.588,0.271,2.128,0.813c0.54,0.543,0.776,1.42,0.709,2.627l4.155-0.512c0-1.953-0.532-3.494-1.599-4.626
		c-1.063-1.131-2.846-1.696-5.344-1.696c-2.331,0-4.079,0.58-5.244,1.744c-1.165,1.161-1.748,2.658-1.748,4.486
		c0,0.681,0.084,1.332,0.254,1.951c0.168,0.621,0.481,1.211,0.938,1.768c0.455,0.559,1.097,1.086,1.924,1.581
		c0.828,0.497,1.884,0.96,3.168,1.396c0.775,0.279,1.4,0.543,1.873,0.789c0.474,0.248,0.845,0.521,1.115,0.814
		c0.271,0.295,0.457,0.636,0.559,1.023c0.101,0.387,0.15,0.844,0.15,1.371c0,1.146-0.236,1.983-0.709,2.51
		c-0.474,0.527-1.334,0.791-2.584,0.791c-0.98,0-1.724-0.311-2.229-0.93c-0.507-0.621-0.744-1.457-0.709-2.513l-4.104,0.606
		c0.065,2.014,0.681,3.556,1.842,4.625c1.16,1.068,2.953,1.604,5.377,1.604c2.422,0,4.18-0.612,5.274-1.838
		c1.095-1.224,1.642-2.856,1.642-4.903c0-0.807-0.062-1.541-0.178-2.209c-0.117-0.666-0.377-1.285-0.781-1.859
		c-0.402-0.573-0.982-1.1-1.738-1.582c-0.756-0.479-1.756-0.92-2.998-1.324c-0.908-0.277-1.631-0.557-2.168-0.836
		c-0.539-0.279-0.958-0.564-1.261-0.861c-0.302-0.293-0.505-0.604-0.604-0.93c-0.102-0.324-0.149-0.674-0.149-1.045
		c0-0.311,0.041-0.635,0.126-0.977C322.851,143.777,323.004,143.467,323.224,143.187z"/>
	<path fill="#FFFFFF" d="M341.325,133.562h-3.899v5.627h-2.736v2.838h2.635v15.019c0,0.588,0.066,1.186,0.203,1.789
		c0.134,0.604,0.396,1.156,0.785,1.649c0.388,0.497,0.92,0.899,1.596,1.211c0.677,0.31,1.554,0.464,2.636,0.464h2.024v-3.488h-0.771
		c-0.789,0-1.398-0.168-1.827-0.51s-0.645-1.102-0.645-2.279v-13.854h3.293v-2.838h-3.293L341.325,133.562L341.325,133.562z"/>
	<path fill="#FFFFFF" d="M354.653,138.866c-1.885,0-3.375,0.355-4.469,1.067c-1.094,0.713-1.877,1.674-2.348,2.884
		c-0.168,0.402-0.304,0.905-0.404,1.51c-0.102,0.604-0.184,1.264-0.252,1.977c-0.067,0.715-0.109,1.466-0.125,2.256
		c-0.02,0.79-0.025,1.572-0.025,2.348c0,0.59,0.007,1.227,0.025,1.907c0.016,0.681,0.041,1.354,0.074,2.022
		c0.032,0.666,0.084,1.279,0.151,1.836c0.066,0.559,0.15,1.022,0.252,1.395c0.136,0.527,0.362,1.055,0.683,1.582
		c0.319,0.527,0.749,0.998,1.287,1.418c0.539,0.418,1.194,0.76,1.971,1.021c0.772,0.264,1.699,0.396,2.775,0.396
		c2.424,0,4.231-0.525,5.429-1.582c1.193-1.053,1.857-2.572,1.994-4.557l-4.055-0.697c-0.067,1.087-0.349,1.932-0.842,2.535
		c-0.494,0.605-1.233,0.906-2.223,0.906c-1.635,0-2.691-0.697-3.168-2.094c-0.168-0.525-0.278-1.285-0.328-2.277
		c-0.051-0.991-0.076-1.998-0.076-3.021h10.74v-5.672c0-2.232-0.556-3.982-1.666-5.254
		C358.943,139.5,357.144,138.866,354.653,138.866z M357.72,148.719h-6.688c0.033-1.084,0.085-1.997,0.152-2.741
		c0.068-0.743,0.187-1.332,0.357-1.769c0.307-0.713,0.715-1.199,1.225-1.463c0.512-0.264,1.074-0.396,1.687-0.396
		c0.682,0,1.233,0.116,1.658,0.351c0.425,0.231,0.757,0.549,0.995,0.951c0.239,0.403,0.4,0.876,0.485,1.42
		c0.085,0.543,0.128,1.106,0.128,1.696L357.72,148.719L357.72,148.719z"/>
	<path fill="#FFFFFF" d="M384.526,138.958c-1.217,0-2.264,0.231-3.142,0.697c-0.88,0.465-1.706,1.086-2.482,1.86
		c-0.438-0.808-1.056-1.435-1.85-1.884c-0.794-0.45-1.782-0.676-2.964-0.676c-1.081,0-1.984,0.219-2.71,0.652
		c-0.729,0.434-1.376,1.053-1.952,1.859h-0.101v-2.279h-4.054v22.969h4.003v-15.9c0-1.086,0.31-1.953,0.93-2.604
		c0.619-0.649,1.416-0.976,2.39-0.976c0.971,0,1.725,0.287,2.262,0.859c0.535,0.573,0.803,1.356,0.803,2.348v16.273h4.004v-16.229
		c0-0.99,0.328-1.78,0.987-2.37c0.658-0.589,1.443-0.884,2.356-0.884c0.979,0,1.737,0.287,2.278,0.859
		c0.54,0.574,0.812,1.357,0.812,2.35v16.271h4.003v-17.25c0-1.766-0.466-3.199-1.395-4.299S386.384,138.958,384.526,138.958z"/>
	<path fill="#FFFFFF" d="M398.135,143.187c0.219-0.276,0.532-0.503,0.937-0.674c0.406-0.171,0.912-0.255,1.521-0.255
		c0.879,0,1.588,0.271,2.129,0.813c0.539,0.543,0.776,1.42,0.709,2.627l4.155-0.512c0-1.953-0.532-3.494-1.598-4.626
		c-1.063-1.131-2.846-1.696-5.344-1.696c-2.332,0-4.08,0.58-5.246,1.744c-1.164,1.161-1.747,2.658-1.747,4.486
		c0,0.681,0.085,1.332,0.254,1.951c0.169,0.621,0.481,1.211,0.938,1.768c0.456,0.559,1.097,1.086,1.925,1.581
		c0.828,0.497,1.883,0.96,3.166,1.396c0.777,0.279,1.402,0.543,1.875,0.789c0.473,0.248,0.844,0.521,1.115,0.814
		c0.27,0.295,0.455,0.636,0.557,1.023c0.102,0.387,0.152,0.844,0.152,1.371c0,1.146-0.236,1.983-0.709,2.51
		c-0.476,0.527-1.336,0.791-2.584,0.791c-0.98,0-1.724-0.311-2.23-0.93c-0.506-0.621-0.742-1.457-0.709-2.513l-4.104,0.606
		c0.065,2.014,0.682,3.556,1.844,4.625c1.16,1.068,2.952,1.604,5.375,1.604c2.424,0,4.182-0.612,5.274-1.838
		c1.095-1.224,1.643-2.856,1.643-4.903c0-0.807-0.061-1.541-0.177-2.209c-0.118-0.666-0.379-1.285-0.781-1.859
		c-0.404-0.573-0.982-1.1-1.739-1.582c-0.755-0.479-1.755-0.92-2.999-1.324c-0.906-0.277-1.629-0.557-2.166-0.836
		c-0.539-0.279-0.959-0.564-1.262-0.861c-0.303-0.293-0.504-0.604-0.605-0.93c-0.1-0.324-0.149-0.674-0.149-1.045
		c0-0.311,0.043-0.635,0.127-0.977C397.765,143.775,397.915,143.467,398.135,143.187z"/>
	<path fill="#FFFFFF" d="M0,60.004v110.987h76.742h186.735V60.004L76.742,0L0,60.004z M70.592,164.838H6.15V68.769h58.226v-5.632
		H6.15v-0.135l64.441-50.387V164.838z M202.039,133.194h5.9v5.518c0,10.607,3.889,18.246,14.214,18.246s14.214-7.639,14.214-18.246
		c0-23.764-33.926-24.188-33.926-51.769c0-14.851,6.168-24.47,19.979-24.611c14.215,0,19.98,10.467,19.98,24.75v2.123h-5.9v-2.545
		c0-10.467-3.755-18.388-13.945-18.388c-10.191,0-13.946,7.779-13.946,18.247c0,24.045,33.926,24.469,33.926,51.768
		c0,14.285-5.899,24.752-20.248,24.752c-14.348,0-20.249-10.467-20.249-24.752L202.039,133.194L202.039,133.194z M143.048,63.181
		h8.851l17.712,87.552l17.578-87.552h8.851v99.01h-5.899V74.213l-17.578,87.834h-6.168l-17.847-87.551v87.695h-5.498L143.048,63.181
		L143.048,63.181z M92.663,63.181h44.385v5.94h-19.042v93.07h-6.168v-93.07H92.663V63.181z"/>
</g>
</svg>
