<?xml version="1.0" encoding="utf-8"?>
<!-- Generator: Adobe Illustrator 16.0.3, SVG Export Plug-In . SVG Version: 6.00 Build 0)  -->
<!DOCTYPE svg PUBLIC "-//W3C//DTD SVG 1.1//EN" "http://www.w3.org/Graphics/SVG/1.1/DTD/svg11.dtd">
<svg version="1.1" id="Layer_1" xmlns="http://www.w3.org/2000/svg" xmlns:xlink="http://www.w3.org/1999/xlink" x="0px" y="0px"
	 width="477.552px" height="171.177px" viewBox="0 0 477.552 171.177" enable-background="new 0 0 477.552 171.177"
	 xml:space="preserve">
<g>
	<path fill="#00ADDC" d="M286.183,89.089c0,0.588,0.068,1.186,0.203,1.79s0.396,1.155,0.785,1.649c0.389,0.497,0.92,0.9,1.596,1.211
		c0.676,0.31,1.553,0.464,2.635,0.464h2.027v-3.487h-0.773c-0.789,0-1.398-0.17-1.827-0.511s-0.642-1.101-0.642-2.278V74.071h3.293
		v-2.836h-3.293v-5.626h-3.902v5.626h-2.736v2.836h2.635V89.089z"/>
	<path fill="#00ADDC" d="M295.991,86.88c0.033,0.667,0.084,1.279,0.15,1.836c0.067,0.559,0.152,1.023,0.254,1.395
		c0.135,0.528,0.361,1.055,0.682,1.582c0.318,0.528,0.748,1,1.287,1.419c0.538,0.417,1.195,0.759,1.969,1.022
		c0.775,0.263,1.699,0.396,2.777,0.396c2.423,0,4.232-0.526,5.428-1.582c1.194-1.053,1.859-2.571,1.994-4.556l-4.053-0.699
		c-0.068,1.087-0.35,1.932-0.844,2.535c-0.494,0.605-1.234,0.906-2.221,0.906c-1.637,0-2.691-0.697-3.168-2.092
		c-0.17-0.526-0.279-1.285-0.33-2.278c-0.05-0.991-0.076-1.999-0.076-3.022h10.742V78.07c0-2.231-0.556-3.983-1.667-5.254
		c-1.11-1.271-2.911-1.907-5.401-1.907c-1.887,0-3.375,0.356-4.469,1.069c-1.095,0.713-1.877,1.673-2.348,2.883
		c-0.168,0.403-0.303,0.907-0.404,1.511s-0.186,1.263-0.252,1.975c-0.068,0.713-0.109,1.466-0.127,2.255
		c-0.018,0.791-0.025,1.574-0.025,2.348c0,0.59,0.008,1.225,0.025,1.906C295.933,85.54,295.958,86.215,295.991,86.88z
		 M300.046,78.023c0.068-0.744,0.186-1.332,0.357-1.767c0.305-0.712,0.715-1.201,1.225-1.464c0.51-0.263,1.072-0.396,1.686-0.396
		c0.68,0,1.233,0.116,1.658,0.349c0.426,0.233,0.758,0.55,0.996,0.954s0.398,0.876,0.484,1.418c0.085,0.543,0.128,1.108,0.128,1.697
		v1.952h-6.687C299.925,79.682,299.978,78.768,300.046,78.023z"/>
	<path fill="#00ADDC" d="M313.593,86.88c0.016,0.667,0.058,1.279,0.127,1.836c0.066,0.559,0.15,1.023,0.252,1.395
		c0.169,0.559,0.414,1.109,0.734,1.651c0.321,0.543,0.752,1.017,1.293,1.419c0.539,0.402,1.189,0.729,1.95,0.976
		s1.663,0.373,2.711,0.373c2.499,0,4.331-0.566,5.497-1.697c1.165-1.132,1.781-2.751,1.85-4.859l-4.104-0.651
		c0,1.18-0.227,2.108-0.68,2.789c-0.452,0.684-1.197,1.023-2.235,1.023c-0.87,0-1.549-0.191-2.035-0.576
		c-0.486-0.386-0.846-0.918-1.08-1.596c-0.169-0.523-0.271-1.271-0.304-2.242c-0.033-0.971-0.051-1.966-0.051-2.983
		c0.033-1.851,0.084-3.453,0.15-4.808c0.066-1.357,0.201-2.267,0.402-2.729c0.301-0.709,0.695-1.203,1.181-1.479
		c0.485-0.278,1.065-0.416,1.734-0.416c0.905,0,1.618,0.31,2.138,0.93c0.52,0.62,0.779,1.626,0.779,3.023l4.154-0.513
		c0-2.076-0.533-3.734-1.596-4.974c-1.065-1.24-2.847-1.86-5.346-1.86c-1.893,0-3.379,0.342-4.459,1.023
		c-1.081,0.681-1.858,1.611-2.33,2.789c-0.17,0.373-0.305,0.86-0.406,1.464c-0.102,0.605-0.178,1.28-0.228,2.023
		s-0.093,1.527-0.126,2.348c-0.035,0.821-0.051,1.619-0.051,2.394c0,0.59,0.008,1.225,0.024,1.906
		C313.558,85.54,313.574,86.215,313.593,86.88z"/>
	<path fill="#00ADDC" d="M334.759,78.117c0-1.084,0.303-1.921,0.905-2.511c0.603-0.588,1.441-0.883,2.515-0.883
		c1.105,0,1.943,0.288,2.514,0.86c0.57,0.573,0.855,1.356,0.855,2.348v16.273h4.003v-17.25c0-1.766-0.464-3.2-1.39-4.3
		c-0.926-1.1-2.314-1.65-4.165-1.65c-2.222,0-3.921,0.837-5.099,2.511h-0.088V60.448h-4.053v33.755h4.002V78.117z"/>
	<path fill="#00ADDC" d="M353.074,78.302c0-1.084,0.334-1.953,1.005-2.604c0.671-0.65,1.543-0.977,2.615-0.977
		c1.105,0,1.911,0.288,2.414,0.86c0.502,0.573,0.755,1.356,0.755,2.348v16.273h4.002v-17.25c0-1.766-0.462-3.2-1.388-4.3
		c-0.926-1.1-2.316-1.65-4.166-1.65c-2.223,0-3.922,0.837-5.1,2.511h-0.088v-2.279h-4.053v22.969h4.003V78.302z"/>
	<path fill="#00ADDC" d="M367.234,86.88c0.017,0.667,0.058,1.279,0.126,1.836c0.068,0.559,0.154,1.023,0.256,1.395
		c0.169,0.559,0.424,1.109,0.762,1.651c0.339,0.543,0.779,1.017,1.322,1.419c0.541,0.402,1.193,0.729,1.957,0.976
		c0.762,0.247,1.668,0.373,2.72,0.373c0.813,0,1.644-0.078,2.49-0.233c0.848-0.154,1.636-0.449,2.364-0.883s1.348-1.039,1.855-1.813
		c0.508-0.775,0.848-1.782,1.018-3.022c0.202-1.766,0.305-3.533,0.305-5.301c0-0.805-0.019-1.72-0.053-2.742
		c-0.033-1.023-0.084-1.984-0.15-2.883c-0.068-0.96-0.221-1.853-0.457-2.673c-0.238-0.821-0.628-1.535-1.17-2.139
		c-0.543-0.605-1.263-1.077-2.161-1.419c-0.897-0.34-2.06-0.511-3.482-0.511c-1.897,0-3.406,0.342-4.524,1.023
		c-1.117,0.681-1.914,1.611-2.389,2.789c-0.17,0.373-0.306,0.86-0.406,1.464c-0.102,0.605-0.188,1.28-0.256,2.023
		s-0.119,1.527-0.152,2.348s-0.05,1.619-0.05,2.394c0,0.59,0.007,1.225,0.026,1.906C367.2,85.54,367.218,86.215,367.234,86.88z
		 M371.312,78.918c0.066-1.376,0.201-2.28,0.402-2.714c0.302-0.709,0.729-1.204,1.283-1.483c0.553-0.277,1.165-0.417,1.837-0.417
		c1.644,0,2.699,0.726,3.169,2.18c0.1,0.278,0.176,0.649,0.227,1.111c0.051,0.464,0.084,0.991,0.1,1.577
		c0.018,0.587,0.033,1.198,0.051,1.832c0.018,0.633,0.025,1.275,0.025,1.924c0,0.648-0.008,1.298-0.025,1.947s-0.051,1.26-0.1,1.832
		c-0.051,0.571-0.109,1.067-0.176,1.483c-0.068,0.418-0.135,0.703-0.201,0.857c-0.27,0.619-0.672,1.121-1.209,1.508
		c-0.536,0.385-1.156,0.578-1.859,0.578c-1.744,0-2.852-0.709-3.32-2.133c-0.169-0.525-0.27-1.273-0.303-2.247
		c-0.035-0.974-0.051-1.972-0.051-2.992C371.193,81.909,371.245,80.294,371.312,78.918z"/>
	<path fill="#00ADDC" d="M387.292,93.39c0.507,0.418,1.148,0.713,1.926,0.883c0.775,0.171,1.705,0.257,2.787,0.257h0.811v-3.396
		h-0.608c-1.013,0-1.664-0.24-1.95-0.719c-0.287-0.479-0.432-1.245-0.432-2.297v-27.67h-4.053V88.81
		c0,1.147,0.127,2.092,0.381,2.836C386.405,92.39,386.786,92.972,387.292,93.39z"/>
	<path fill="#00ADDC" d="M395.246,86.88c0.017,0.667,0.06,1.279,0.126,1.836c0.068,0.559,0.154,1.023,0.256,1.395
		c0.169,0.559,0.424,1.109,0.763,1.651c0.339,0.543,0.778,1.017,1.321,1.419c0.541,0.402,1.194,0.729,1.957,0.976
		s1.67,0.373,2.72,0.373c0.813,0,1.644-0.078,2.491-0.233c0.847-0.154,1.635-0.449,2.363-0.883s1.348-1.039,1.855-1.813
		c0.51-0.775,0.849-1.782,1.018-3.022c0.203-1.766,0.305-3.533,0.305-5.301c0-0.805-0.018-1.72-0.051-2.742
		c-0.035-1.023-0.085-1.984-0.152-2.883c-0.068-0.96-0.221-1.853-0.457-2.673c-0.238-0.821-0.628-1.535-1.17-2.139
		c-0.543-0.605-1.263-1.077-2.16-1.419c-0.898-0.34-2.059-0.511-3.482-0.511c-1.898,0-3.406,0.342-4.524,1.023
		s-1.915,1.611-2.39,2.789c-0.168,0.373-0.305,0.86-0.406,1.464c-0.102,0.605-0.188,1.28-0.256,2.023
		c-0.066,0.744-0.117,1.527-0.15,2.348c-0.035,0.821-0.052,1.619-0.052,2.394c0,0.59,0.009,1.225,0.026,1.906
		C395.213,85.54,395.229,86.215,395.246,86.88z M399.324,78.918c0.066-1.376,0.2-2.28,0.402-2.714
		c0.302-0.709,0.729-1.204,1.282-1.483c0.553-0.277,1.166-0.417,1.838-0.417c1.643,0,2.699,0.726,3.17,2.18
		c0.1,0.278,0.174,0.649,0.225,1.111c0.051,0.464,0.084,0.991,0.102,1.577c0.016,0.587,0.033,1.198,0.05,1.832
		c0.017,0.633,0.024,1.275,0.024,1.924c0,0.648-0.008,1.298-0.024,1.947s-0.05,1.26-0.101,1.832
		c-0.051,0.571-0.109,1.067-0.176,1.483c-0.066,0.418-0.135,0.703-0.201,0.857c-0.27,0.619-0.671,1.121-1.207,1.508
		c-0.538,0.385-1.158,0.578-1.861,0.578c-1.744,0-2.852-0.709-3.318-2.133c-0.17-0.525-0.271-1.273-0.305-2.247
		c-0.035-0.974-0.051-1.972-0.051-2.992C399.206,81.909,399.257,80.294,399.324,78.918z"/>
	<path fill="#00ADDC" d="M414.2,91.438c0.404,0.914,1.013,1.644,1.823,2.185c0.812,0.543,1.907,0.814,3.294,0.814
		c0.775,0,1.654-0.195,2.634-0.581c0.979-0.388,1.724-1.001,2.229-1.837h0.102v4.322c0,0.467-0.06,0.914-0.179,1.35
		c-0.118,0.434-0.306,0.828-0.56,1.186c-0.256,0.356-0.594,0.643-1.02,0.86c-0.424,0.216-0.924,0.325-1.5,0.325
		c-1.189,0-2.012-0.279-2.47-0.836c-0.458-0.559-0.704-1.303-0.737-2.232l-4.023,0.697c0.068,1.828,0.695,3.246,1.881,4.254
		s2.898,1.512,5.136,1.512c1.559,0,2.821-0.218,3.786-0.651c0.967-0.435,1.721-1.007,2.264-1.72c0.542-0.713,0.915-1.52,1.119-2.418
		c0.203-0.898,0.305-1.813,0.305-2.743V71.235h-4.002v1.767l-0.102,0.046c-0.541-0.681-1.114-1.2-1.723-1.558
		c-0.607-0.355-1.57-0.534-2.889-0.534c-0.473,0-1.021,0.054-1.646,0.162c-0.626,0.109-1.241,0.358-1.851,0.745
		c-0.607,0.388-1.156,0.953-1.645,1.697c-0.49,0.744-0.804,1.751-0.938,3.022c-0.17,1.488-0.254,2.859-0.254,4.114
		c0,1.256,0,2.55,0,3.884c0,1.301,0.059,2.542,0.178,3.719C413.532,89.477,413.794,90.523,414.2,91.438z M417.341,78.884
		c0.068-1.007,0.23-1.837,0.486-2.488c0.254-0.65,0.619-1.123,1.097-1.417c0.477-0.294,1.14-0.443,1.989-0.443
		c1.123,0,1.974,0.342,2.553,1.023c0.576,0.683,0.867,1.55,0.867,2.604v9.394c0,0.898-0.332,1.672-0.996,2.324
		c-0.662,0.65-1.471,0.975-2.424,0.975c-0.918,0-1.624-0.154-2.117-0.464c-0.494-0.31-0.852-0.806-1.072-1.487
		c-0.221-0.683-0.357-1.542-0.408-2.582c-0.051-1.038-0.076-2.301-0.076-3.789C417.239,81.108,417.274,79.891,417.341,78.884z"/>
	<path fill="#00ADDC" d="M441.159,79.93l-1.875,8.043h-0.152l-2.026-7.951l-2.128-8.787h-4.256l6.637,23.155l-0.404,1.627
		c-0.373,1.549-0.77,2.611-1.191,3.186c-0.423,0.573-1.105,0.859-2.053,0.859h-1.013v3.162h1.521c1.789,0,3.123-0.474,4.002-1.419
		c0.879-0.944,1.521-2.192,1.926-3.741l7.194-26.829h-4.104L441.159,79.93z"/>
	<path fill="#00ADDC" d="M303.206,108.699c0.98,0,1.739,0.289,2.281,0.86c0.539,0.574,0.811,1.357,0.811,2.349v16.273h4.002v-17.25
		c0-1.767-0.465-3.201-1.394-4.301s-2.322-1.65-4.18-1.65c-1.216,0-2.264,0.232-3.142,0.697c-0.879,0.465-1.705,1.086-2.482,1.859
		c-0.439-0.805-1.057-1.434-1.85-1.883c-0.794-0.449-1.781-0.674-2.963-0.674c-1.082,0-1.984,0.217-2.711,0.65
		c-0.727,0.436-1.377,1.055-1.951,1.859h-0.102v-2.277h-4.053v22.969h4.002V112.28c0-1.085,0.311-1.952,0.93-2.604
		c0.619-0.65,1.416-0.977,2.389-0.977c0.971,0,1.725,0.289,2.262,0.86c0.535,0.574,0.805,1.357,0.805,2.349v16.273h4.002v-16.228
		c0-0.991,0.33-1.782,0.988-2.37C301.509,108.994,302.294,108.699,303.206,108.699z"/>
	<path fill="#00ADDC" d="M314.616,126.345c0.422,0.636,0.988,1.146,1.697,1.533c0.709,0.388,1.588,0.582,2.634,0.582
		c1.081,0,2.052-0.171,2.913-0.512c0.861-0.34,1.629-0.93,2.307-1.768h0.05v2h4.003v-16.925c0-2.354-0.617-4.006-1.852-4.95
		c-1.234-0.947-2.98-1.419-5.242-1.419c-1.924,0-3.513,0.435-4.762,1.302c-1.25,0.867-2.061,2.062-2.432,3.58l3.8,0.977
		c0.169-0.838,0.573-1.441,1.215-1.814c0.642-0.371,1.301-0.557,1.977-0.557c1.283,0,2.153,0.264,2.608,0.79
		c0.457,0.528,0.685,1.24,0.685,2.138v3.069h-3.952c-1.385,0-2.516,0.226-3.395,0.674c-0.878,0.45-1.57,1.032-2.076,1.744
		c-0.507,0.714-0.861,1.503-1.064,2.371s-0.305,1.737-0.305,2.604c0,0.836,0.094,1.65,0.279,2.44
		C313.89,124.998,314.192,125.71,314.616,126.345z M318.517,118.441c0.795-0.574,1.715-0.861,2.762-0.861h2.938v3.627
		c0,1.148-0.312,2.047-0.937,2.697c-0.626,0.65-1.563,0.976-2.813,0.976c-1.082,0-1.875-0.286-2.381-0.859
		c-0.507-0.573-0.76-1.401-0.76-2.487C317.327,120.044,317.724,119.013,318.517,118.441z"/>
	<path fill="#00ADDC" d="M341.052,104.98c-2.223,0-3.922,0.836-5.1,2.51h-0.088v-2.277h-4.053v22.969h4.003V112.28
		c0-1.085,0.334-1.952,1.005-2.604c0.67-0.65,1.542-0.977,2.615-0.977c1.105,0,1.91,0.289,2.414,0.86
		c0.502,0.574,0.754,1.357,0.754,2.349v16.273h4.002v-17.25c0-1.767-0.462-3.201-1.388-4.301S342.901,104.98,341.052,104.98z"/>
	<path fill="#00ADDC" d="M362.46,106.306c-1.233-0.947-2.98-1.419-5.24-1.419c-1.926,0-3.514,0.435-4.764,1.302
		c-1.248,0.867-2.059,2.062-2.432,3.58l3.801,0.977c0.168-0.838,0.574-1.441,1.216-1.814c0.642-0.371,1.3-0.557,1.976-0.557
		c1.283,0,2.154,0.264,2.609,0.79c0.456,0.528,0.684,1.24,0.684,2.138v3.069h-3.951c-1.386,0-2.518,0.226-3.395,0.674
		c-0.879,0.45-1.57,1.032-2.077,1.744c-0.507,0.714-0.862,1.503-1.064,2.371s-0.304,1.737-0.304,2.604
		c0,0.836,0.092,1.65,0.279,2.44c0.184,0.792,0.488,1.505,0.911,2.14c0.423,0.636,0.989,1.146,1.697,1.533
		c0.71,0.388,1.587,0.582,2.635,0.582c1.081,0,2.052-0.171,2.913-0.512c0.861-0.34,1.629-0.93,2.306-1.768h0.05v2h4.002v-16.925
		C364.312,108.902,363.694,107.25,362.46,106.306z M360.31,121.207c0,1.148-0.313,2.047-0.937,2.697
		c-0.626,0.65-1.563,0.976-2.813,0.976c-1.081,0-1.874-0.286-2.38-0.859c-0.508-0.573-0.762-1.401-0.762-2.487
		c0-1.488,0.397-2.52,1.191-3.092c0.793-0.574,1.715-0.861,2.761-0.861h2.938V121.207z"/>
	<path fill="#00ADDC" d="M378.519,131.667c-0.119,0.434-0.307,0.83-0.561,1.186c-0.256,0.356-0.594,0.643-1.019,0.861
		c-0.425,0.216-0.926,0.325-1.503,0.325c-1.188,0-2.011-0.278-2.469-0.837c-0.457-0.558-0.704-1.302-0.737-2.232l-4.022,0.697
		c0.067,1.828,0.694,3.248,1.881,4.256c1.187,1.006,2.898,1.51,5.137,1.51c1.559,0,2.82-0.216,3.786-0.65s1.72-1.008,2.263-1.72
		c0.543-0.714,0.916-1.521,1.118-2.418c0.204-0.899,0.306-1.813,0.306-2.744v-24.688h-4.002v1.768l-0.102,0.045
		c-0.541-0.681-1.115-1.199-1.723-1.557c-0.607-0.356-1.57-0.535-2.889-0.535c-0.473,0-1.021,0.055-1.646,0.162
		c-0.625,0.109-1.24,0.357-1.849,0.744c-0.608,0.389-1.157,0.953-1.647,1.697s-0.801,1.752-0.937,3.022
		c-0.169,1.487-0.253,2.86-0.253,4.115s0,2.551,0,3.882c0,1.303,0.059,2.542,0.177,3.72c0.118,1.179,0.38,2.224,0.786,3.139
		c0.404,0.914,1.014,1.644,1.824,2.185c0.811,0.543,1.907,0.814,3.293,0.814c0.775,0,1.654-0.193,2.635-0.581
		c0.979-0.388,1.722-1.001,2.229-1.837h0.102v4.324C378.696,130.785,378.637,131.234,378.519,131.667z M377.751,123.857
		c-0.663,0.65-1.471,0.977-2.424,0.977c-0.918,0-1.623-0.154-2.117-0.465c-0.494-0.309-0.852-0.806-1.072-1.488
		c-0.221-0.682-0.357-1.542-0.408-2.58c-0.051-1.037-0.076-2.301-0.076-3.789c0-1.426,0.033-2.643,0.103-3.65
		c0.067-1.007,0.229-1.838,0.484-2.488s0.62-1.122,1.097-1.418c0.477-0.293,1.141-0.441,1.99-0.441c1.123,0,1.973,0.342,2.551,1.024
		c0.579,0.681,0.869,1.55,0.869,2.603v9.393C378.747,122.431,378.415,123.207,377.751,123.857z"/>
	<path fill="#00ADDC" d="M400.679,122.369l-4.053-0.697c-0.068,1.085-0.35,1.93-0.844,2.534s-1.234,0.907-2.221,0.907
		c-1.635,0-2.69-0.697-3.167-2.094c-0.169-0.526-0.278-1.285-0.329-2.277c-0.052-0.991-0.076-1.998-0.076-3.021h10.74v-5.674
		c0-2.23-0.556-3.982-1.666-5.254c-1.11-1.27-2.912-1.905-5.402-1.905c-1.885,0-3.375,0.355-4.469,1.069
		c-1.094,0.713-1.877,1.674-2.348,2.883c-0.168,0.403-0.303,0.906-0.404,1.51c-0.102,0.605-0.186,1.264-0.252,1.977
		c-0.067,0.714-0.109,1.465-0.127,2.256c-0.016,0.79-0.025,1.573-0.025,2.348c0,0.59,0.01,1.225,0.025,1.906
		c0.018,0.682,0.043,1.355,0.076,2.023c0.033,0.666,0.084,1.278,0.15,1.836c0.068,0.559,0.152,1.021,0.254,1.395
		c0.135,0.527,0.361,1.055,0.682,1.582c0.32,0.526,0.75,0.998,1.287,1.417c0.538,0.419,1.195,0.761,1.969,1.022
		c0.775,0.263,1.701,0.396,2.777,0.396c2.424,0,4.232-0.526,5.428-1.581C399.88,125.873,400.545,124.353,400.679,122.369z
		 M390.192,112.001c0.068-0.745,0.188-1.333,0.357-1.768c0.307-0.713,0.715-1.201,1.225-1.465c0.511-0.262,1.072-0.395,1.686-0.395
		c0.682,0,1.233,0.115,1.66,0.35c0.425,0.23,0.756,0.549,0.994,0.951c0.238,0.403,0.4,0.877,0.486,1.418
		c0.084,0.543,0.127,1.109,0.127,1.697v1.953h-6.688C390.073,113.66,390.124,112.746,390.192,112.001z"/>
	<path fill="#00ADDC" d="M423.534,104.98c-1.217,0-2.264,0.232-3.141,0.697c-0.88,0.465-1.707,1.086-2.484,1.859
		c-0.438-0.805-1.057-1.434-1.849-1.883c-0.794-0.449-1.782-0.674-2.964-0.674c-1.082,0-1.984,0.217-2.711,0.65
		c-0.727,0.436-1.377,1.055-1.95,1.859h-0.103v-2.277h-4.052v22.969h4.002V112.28c0-1.085,0.31-1.952,0.93-2.604
		c0.62-0.65,1.415-0.977,2.388-0.977s1.726,0.289,2.262,0.86c0.536,0.574,0.805,1.357,0.805,2.349v16.273h4.002v-16.228
		c0-0.991,0.33-1.782,0.988-2.37c0.66-0.59,1.444-0.885,2.355-0.885c0.98,0,1.74,0.289,2.281,0.86
		c0.539,0.574,0.811,1.357,0.811,2.349v16.273h4.002v-17.25c0-1.767-0.465-3.201-1.393-4.301
		C426.784,105.531,425.392,104.98,423.534,104.98z"/>
	<path fill="#00ADDC" d="M440.191,104.887c-1.886,0-3.375,0.355-4.47,1.069c-1.094,0.713-1.876,1.674-2.347,2.883
		c-0.169,0.403-0.303,0.906-0.405,1.51c-0.1,0.605-0.184,1.264-0.252,1.977c-0.066,0.714-0.109,1.465-0.125,2.256
		c-0.018,0.79-0.025,1.573-0.025,2.348c0,0.59,0.008,1.225,0.025,1.906c0.016,0.682,0.042,1.355,0.075,2.023
		c0.033,0.666,0.083,1.278,0.151,1.836c0.066,0.559,0.15,1.021,0.253,1.395c0.134,0.527,0.362,1.055,0.681,1.582
		c0.32,0.526,0.75,0.998,1.288,1.417s1.194,0.761,1.97,1.022c0.774,0.263,1.699,0.396,2.775,0.396c2.424,0,4.232-0.526,5.43-1.581
		c1.193-1.053,1.858-2.572,1.994-4.557l-4.054-0.697c-0.069,1.085-0.349,1.93-0.843,2.534s-1.234,0.907-2.223,0.907
		c-1.635,0-2.689-0.697-3.167-2.094c-0.169-0.526-0.278-1.285-0.329-2.277c-0.051-0.991-0.076-1.998-0.076-3.021h10.741v-5.674
		c0-2.23-0.556-3.982-1.667-5.254C444.482,105.523,442.681,104.887,440.191,104.887z M443.257,114.744h-6.688
		c0.033-1.084,0.086-1.998,0.152-2.742c0.068-0.745,0.188-1.333,0.358-1.768c0.306-0.713,0.714-1.201,1.224-1.465
		c0.512-0.262,1.074-0.395,1.688-0.395c0.68,0,1.232,0.115,1.658,0.35c0.425,0.23,0.757,0.549,0.994,0.951
		c0.24,0.403,0.4,0.877,0.486,1.418c0.084,0.543,0.127,1.109,0.127,1.697V114.744z"/>
	<path fill="#00ADDC" d="M459.743,104.98c-2.223,0-3.923,0.836-5.101,2.51h-0.087v-2.277h-4.055v22.969h4.004V112.28
		c0-1.085,0.334-1.952,1.006-2.604c0.67-0.65,1.541-0.977,2.615-0.977c1.105,0,1.91,0.289,2.412,0.86
		c0.504,0.574,0.756,1.357,0.756,2.349v16.273h4.002v-17.25c0-1.767-0.463-3.201-1.389-4.301S461.593,104.98,459.743,104.98z"/>
	<path fill="#00ADDC" d="M477.552,108.048v-2.836h-3.293v-5.627h-3.902v5.627h-2.734v2.836h2.635v15.018
		c0,0.59,0.066,1.188,0.202,1.791c0.134,0.604,0.396,1.155,0.784,1.65s0.921,0.899,1.596,1.209c0.676,0.31,1.555,0.465,2.635,0.465
		h2.027v-3.487h-0.771c-0.79,0-1.398-0.171-1.828-0.511c-0.43-0.342-0.643-1.101-0.643-2.278v-13.856H477.552z"/>
	<path fill="#00ADDC" d="M289.399,143.187c0.221-0.277,0.533-0.503,0.938-0.674c0.406-0.17,0.912-0.255,1.521-0.255
		c0.877,0,1.586,0.271,2.127,0.813c0.541,0.543,0.777,1.419,0.709,2.627l4.154-0.512c0-1.953-0.531-3.494-1.596-4.626
		c-1.063-1.131-2.846-1.696-5.345-1.696c-2.331,0-4.078,0.58-5.243,1.744c-1.166,1.161-1.748,2.658-1.748,4.486
		c0,0.681,0.084,1.333,0.252,1.951c0.17,0.621,0.482,1.211,0.938,1.768c0.456,0.559,1.098,1.086,1.926,1.581
		c0.828,0.497,1.883,0.96,3.167,1.395c0.776,0.28,1.401,0.543,1.874,0.79c0.473,0.248,0.844,0.52,1.115,0.814
		c0.27,0.295,0.456,0.636,0.557,1.023c0.102,0.387,0.152,0.844,0.152,1.371c0,1.146-0.236,1.984-0.709,2.511
		c-0.474,0.526-1.334,0.79-2.584,0.79c-0.98,0-1.723-0.31-2.229-0.93c-0.508-0.62-0.744-1.457-0.711-2.512l-4.104,0.606
		c0.068,2.014,0.682,3.556,1.844,4.626c1.16,1.068,2.951,1.604,5.375,1.604s4.182-0.612,5.276-1.838
		c1.093-1.223,1.64-2.857,1.64-4.904c0-0.806-0.059-1.541-0.176-2.209c-0.117-0.665-0.379-1.285-0.781-1.859
		c-0.404-0.573-0.983-1.1-1.738-1.582c-0.757-0.479-1.757-0.92-3-1.324c-0.906-0.278-1.629-0.557-2.167-0.836
		s-0.958-0.565-1.26-0.861c-0.303-0.293-0.505-0.604-0.604-0.93c-0.103-0.324-0.152-0.674-0.152-1.045
		c0-0.311,0.043-0.635,0.127-0.977S289.181,143.467,289.399,143.187z"/>
	<path fill="#00ADDC" d="M310.827,147.884l-1.876,8.044H308.8l-2.027-7.951l-2.128-8.788h-4.256l6.638,23.156l-0.405,1.627
		c-0.372,1.549-0.769,2.609-1.19,3.185c-0.424,0.573-1.106,0.859-2.053,0.859h-1.014v3.161h1.521c1.789,0,3.123-0.473,4.002-1.418
		c0.878-0.945,1.52-2.193,1.926-3.742l7.193-26.828h-4.104L310.827,147.884z"/>
	<path fill="#00ADDC" d="M323.224,143.187c0.219-0.277,0.531-0.503,0.938-0.674c0.404-0.17,0.911-0.255,1.52-0.255
		c0.877,0,1.588,0.271,2.128,0.813c0.54,0.543,0.776,1.419,0.709,2.627l4.155-0.512c0-1.953-0.532-3.494-1.598-4.626
		c-1.063-1.131-2.846-1.696-5.344-1.696c-2.331,0-4.079,0.58-5.244,1.744c-1.165,1.161-1.748,2.658-1.748,4.486
		c0,0.681,0.084,1.333,0.254,1.951c0.168,0.621,0.481,1.211,0.938,1.768c0.455,0.559,1.097,1.086,1.924,1.581
		c0.828,0.497,1.884,0.96,3.168,1.395c0.775,0.28,1.4,0.543,1.873,0.79c0.474,0.248,0.845,0.52,1.115,0.814
		c0.271,0.295,0.457,0.636,0.559,1.023c0.1,0.387,0.15,0.844,0.15,1.371c0,1.146-0.236,1.984-0.709,2.511s-1.334,0.79-2.584,0.79
		c-0.98,0-1.723-0.31-2.229-0.93c-0.507-0.62-0.744-1.457-0.709-2.512l-4.104,0.606c0.066,2.014,0.681,3.556,1.842,4.626
		c1.16,1.068,2.953,1.604,5.377,1.604c2.422,0,4.18-0.612,5.274-1.838c1.095-1.223,1.642-2.857,1.642-4.904
		c0-0.806-0.061-1.541-0.178-2.209c-0.117-0.665-0.377-1.285-0.781-1.859c-0.402-0.573-0.982-1.1-1.738-1.582
		c-0.756-0.479-1.756-0.92-2.998-1.324c-0.908-0.278-1.631-0.557-2.168-0.836c-0.539-0.279-0.958-0.565-1.261-0.861
		c-0.302-0.293-0.505-0.604-0.604-0.93c-0.102-0.324-0.15-0.674-0.15-1.045c0-0.311,0.041-0.635,0.126-0.977
		C322.851,143.777,323.003,143.467,323.224,143.187z"/>
	<path fill="#00ADDC" d="M341.325,133.562h-3.9v5.627h-2.736v2.838h2.635v15.018c0,0.588,0.066,1.186,0.203,1.789
		c0.134,0.605,0.396,1.156,0.785,1.65c0.388,0.497,0.92,0.9,1.596,1.211c0.676,0.31,1.553,0.463,2.635,0.463h2.025v-3.487h-0.771
		c-0.789,0-1.398-0.169-1.827-0.511c-0.429-0.341-0.644-1.101-0.644-2.278v-13.854h3.293v-2.838h-3.293V133.562z"/>
	<path fill="#00ADDC" d="M354.653,138.865c-1.885,0-3.375,0.356-4.469,1.068c-1.094,0.713-1.877,1.674-2.348,2.884
		c-0.168,0.403-0.303,0.905-0.404,1.51c-0.101,0.604-0.184,1.264-0.252,1.976c-0.067,0.715-0.109,1.466-0.125,2.256
		c-0.019,0.79-0.025,1.573-0.025,2.348c0,0.59,0.007,1.227,0.025,1.907c0.016,0.681,0.041,1.354,0.074,2.022
		c0.033,0.666,0.084,1.279,0.152,1.836c0.066,0.559,0.15,1.023,0.252,1.395c0.135,0.527,0.362,1.055,0.682,1.582
		c0.32,0.527,0.749,0.998,1.287,1.418c0.539,0.418,1.195,0.76,1.971,1.022c0.773,0.263,1.699,0.396,2.775,0.396
		c2.424,0,4.232-0.526,5.429-1.582c1.194-1.053,1.858-2.572,1.994-4.557l-4.054-0.697c-0.068,1.087-0.349,1.932-0.842,2.535
		c-0.494,0.605-1.234,0.906-2.223,0.906c-1.635,0-2.691-0.697-3.168-2.093c-0.168-0.526-0.278-1.285-0.328-2.278
		c-0.051-0.991-0.076-1.998-0.076-3.021h10.74v-5.672c0-2.232-0.555-3.982-1.666-5.254S357.144,138.865,354.653,138.865z
		 M357.72,148.72h-6.688c0.033-1.084,0.085-1.998,0.152-2.742c0.068-0.743,0.187-1.332,0.357-1.768
		c0.307-0.713,0.715-1.2,1.225-1.463c0.512-0.264,1.074-0.396,1.687-0.396c0.681,0,1.233,0.116,1.658,0.35
		c0.425,0.232,0.757,0.55,0.995,0.952c0.239,0.403,0.4,0.876,0.485,1.419s0.128,1.107,0.128,1.697V148.72z"/>
	<path fill="#00ADDC" d="M384.526,138.957c-1.217,0-2.264,0.232-3.142,0.698c-0.88,0.464-1.706,1.085-2.482,1.86
		c-0.439-0.807-1.056-1.435-1.85-1.883c-0.794-0.451-1.782-0.676-2.964-0.676c-1.081,0-1.984,0.219-2.71,0.652
		c-0.728,0.434-1.376,1.053-1.952,1.859h-0.1v-2.279h-4.054v22.969h4.003v-15.901c0-1.085,0.309-1.952,0.93-2.604
		c0.619-0.65,1.416-0.976,2.389-0.976c0.971,0,1.725,0.287,2.262,0.859c0.535,0.574,0.803,1.357,0.803,2.349v16.272h4.004v-16.227
		c0-0.991,0.328-1.781,0.987-2.371c0.658-0.588,1.443-0.883,2.356-0.883c0.979,0,1.738,0.287,2.279,0.859
		c0.54,0.574,0.811,1.357,0.811,2.349v16.272h4.003v-17.25c0-1.766-0.466-3.199-1.394-4.299
		C387.776,139.507,386.383,138.957,384.526,138.957z"/>
	<path fill="#00ADDC" d="M398.135,143.187c0.219-0.277,0.532-0.503,0.937-0.674c0.406-0.17,0.912-0.255,1.52-0.255
		c0.879,0,1.588,0.271,2.129,0.813c0.539,0.543,0.777,1.419,0.709,2.627l4.155-0.512c0-1.953-0.532-3.494-1.597-4.626
		c-1.064-1.131-2.846-1.696-5.344-1.696c-2.332,0-4.08,0.58-5.246,1.744c-1.164,1.161-1.747,2.658-1.747,4.486
		c0,0.681,0.085,1.333,0.254,1.951c0.169,0.621,0.481,1.211,0.938,1.768c0.456,0.559,1.097,1.086,1.925,1.581
		c0.828,0.497,1.883,0.96,3.166,1.395c0.777,0.28,1.402,0.543,1.875,0.79c0.473,0.248,0.844,0.52,1.115,0.814
		c0.27,0.295,0.455,0.636,0.557,1.023c0.102,0.387,0.152,0.844,0.152,1.371c0,1.146-0.236,1.984-0.709,2.511
		c-0.475,0.526-1.336,0.79-2.584,0.79c-0.98,0-1.723-0.31-2.23-0.93c-0.506-0.62-0.742-1.457-0.709-2.512l-4.104,0.606
		c0.066,2.014,0.682,3.556,1.844,4.626c1.16,1.068,2.952,1.604,5.375,1.604c2.424,0,4.182-0.612,5.275-1.838
		c1.094-1.223,1.642-2.857,1.642-4.904c0-0.806-0.06-1.541-0.177-2.209c-0.118-0.665-0.378-1.285-0.781-1.859
		c-0.404-0.573-0.982-1.1-1.739-1.582c-0.755-0.479-1.755-0.92-2.999-1.324c-0.906-0.278-1.629-0.557-2.166-0.836
		c-0.539-0.279-0.959-0.565-1.262-0.861c-0.303-0.293-0.504-0.604-0.605-0.93c-0.1-0.324-0.15-0.674-0.15-1.045
		c0-0.311,0.043-0.635,0.127-0.977S397.915,143.467,398.135,143.187z"/>
	<path fill="#00ADDC" d="M0,60.004V170.99h76.742h186.735V60.004L76.742,0L0,60.004z M70.592,164.839H6.15V68.769h58.226v-5.632
		H6.15v-0.135l64.442-50.387V164.839z M202.039,133.194h5.9v5.517c0,10.608,3.889,18.246,14.214,18.246s14.214-7.638,14.214-18.246
		c0-23.763-33.926-24.187-33.926-51.768c0-14.851,6.168-24.47,19.98-24.611c14.214,0,19.98,10.467,19.98,24.751v2.122h-5.9V86.66
		c0-10.466-3.755-18.387-13.946-18.387c-10.191,0-13.946,7.779-13.946,18.247c0,24.045,33.926,24.469,33.926,51.768
		c0,14.285-5.9,24.752-20.248,24.752c-14.348,0-20.249-10.467-20.249-24.752V133.194z M143.048,63.181h8.85l17.712,87.552
		l17.578-87.552h8.851v99.01h-5.9V74.213l-17.578,87.835h-6.168l-17.846-87.552v87.695h-5.498V63.181z M92.663,63.181h44.385v5.94
		h-19.042v93.07h-6.168v-93.07H92.663V63.181z"/>
</g>
</svg>
